<svg width="690" height="690" viewBox="0 0 690 690" fill="none" xmlns="http://www.w3.org/2000/svg">
<circle cx="345" cy="345" r="345" fill="#E6C390"/>
<path d="M160.948 170.604C155.199 172.064 146.987 176.992 142.972 181.28C140.965 183.47 137.954 188.033 136.402 191.409C133.756 196.975 133.482 198.344 133.482 206.282C133.482 214.495 133.665 215.316 136.859 221.886C140.965 230.189 146.257 235.299 154.743 239.314C160.309 241.96 161.678 242.234 169.525 242.234C177.373 242.234 178.742 241.96 184.308 239.314C192.794 235.299 198.086 230.189 202.192 221.886C205.386 215.316 205.568 214.495 205.568 206.191C205.568 197.888 205.386 197.066 202.192 190.496C195.987 178.087 185.038 170.696 171.533 170.057C167.7 169.874 162.956 170.148 160.948 170.604ZM176.278 185.387C184.125 187.759 191.425 197.796 191.425 206.191C191.425 217.506 180.84 228.091 169.525 228.091C163.777 228.091 159.123 225.992 154.47 221.247C145.162 212.031 145.162 200.351 154.47 191.135C160.857 184.657 167.7 182.923 176.278 185.387Z" fill="#172639"/>
<path d="M511.342 170.604C505.593 172.064 497.381 176.992 493.366 181.28C491.358 183.47 488.347 188.033 486.796 191.409C484.15 196.975 483.876 198.344 483.876 206.282C483.876 214.495 484.058 215.316 487.252 221.886C491.358 230.189 496.651 235.299 505.137 239.314C510.703 241.96 512.072 242.234 519.919 242.234C527.766 242.234 529.135 241.96 534.701 239.314C543.187 235.299 548.48 230.189 552.586 221.886C555.78 215.316 555.962 214.495 555.962 206.191C555.962 197.888 555.78 197.066 552.586 190.496C546.381 178.087 535.431 170.696 521.926 170.057C518.094 169.874 513.349 170.148 511.342 170.604ZM526.671 185.387C534.519 187.759 541.819 197.796 541.819 206.191C541.819 217.506 531.234 228.091 519.919 228.091C514.17 228.091 509.517 225.992 504.863 221.247C495.556 212.031 495.556 200.351 504.863 191.135C511.25 184.657 518.094 182.923 526.671 185.387Z" fill="#172639"/>
<path d="M125.726 251.177C121.255 252.637 113.59 260.484 112.221 265.138C111.4 267.966 111.126 284.482 111.126 328.829V388.688H118.426H125.726V454.386V520.085H169.525H213.324V454.386V388.688H220.624H227.924V328.829C227.924 285.212 227.65 267.966 226.829 265.32C226.282 263.313 224 259.663 221.81 257.29C215.241 249.899 215.514 249.99 169.16 250.082C142.607 250.173 127.825 250.538 125.726 251.177ZM211.043 266.871L213.324 269.061V321.62V374.088H169.525H125.726V321.62V269.061L128.007 266.871L130.197 264.59H169.525H208.853L211.043 266.871ZM198.725 447.086V505.485H187.775H176.825V461.686V417.887H169.525H162.225V461.686V505.485H151.276H140.326V447.086V388.688H169.525H198.725V447.086Z" fill="#172639"/>
<path d="M476.119 251.177C471.648 252.637 463.983 260.484 462.615 265.138C461.793 267.966 461.52 284.482 461.52 328.829V388.688H468.819H476.119V454.386V520.085H519.918H563.717V454.386V388.688H571.017H578.317V328.829C578.317 285.212 578.043 267.966 577.222 265.32C576.675 263.313 574.394 259.663 572.204 257.29C565.634 249.899 565.907 249.99 519.553 250.082C493 250.173 478.218 250.538 476.119 251.177ZM561.436 266.871L563.717 269.061V321.62V374.088H519.918H476.119V321.62V269.061L478.4 266.871L480.59 264.59H519.918H559.246L561.436 266.871ZM549.118 447.086V505.485H538.168H527.218V461.686V417.887H519.918H512.619V461.686V505.485H501.669H490.719V447.086V388.688H519.918H549.118V447.086Z" fill="#172639"/>
<path d="M242.524 322.989V359.488H249.824H257.124V344.888V330.289H344.722H432.321V344.888V359.488H439.62H446.92V322.989V286.489H439.62H432.321V301.089V315.689H344.722H257.124V301.089V286.489H249.824H242.524V322.989Z" fill="#172639"/>
</svg>
