<svg width="690" height="690" viewBox="0 0 690 690" fill="none" xmlns="http://www.w3.org/2000/svg">
<circle cx="345" cy="345" r="345" fill="#E6C390"/>
<path d="M337.55 132.297C316.468 134.598 297.872 140.03 280.38 148.96C256.353 161.204 238.953 177.775 228.918 198.12C222.75 210.548 219.988 221.688 218.792 239.824C216.214 278.213 215.385 282.816 209.494 294.416C206.179 301.136 197.249 312.828 190.989 318.812L186.11 323.507L166.133 318.904C155.086 316.326 145.88 314.393 145.695 314.669C144.867 315.498 140.448 331.608 138.699 340.262C134.556 360.884 134.004 388.502 137.318 408.479C142.473 439.78 154.809 468.503 174.05 494.096C180.679 502.934 197.526 521.07 200.564 522.727C202.221 523.647 205.075 521.714 224.131 506.708C224.868 506.156 226.525 506.248 229.195 507.26C238.124 510.575 245.489 511.771 261.876 512.508C277.434 513.244 279.092 513.429 283.787 515.73C293.637 520.609 296.031 526.133 296.123 544.913V558.538H303.58H311.037L310.668 542.612C310.208 522.543 308.919 518.676 299.897 509.654C290.875 500.632 282.13 497.87 262.06 497.778C253.038 497.778 241.899 496.397 240.61 495.108C240.15 494.648 268.597 471.541 275.961 466.477C276.33 466.201 275.501 459.941 274.12 452.484L271.543 438.951L273.936 438.491C275.225 438.215 294.097 434.624 315.916 430.574C337.642 426.431 355.686 422.933 355.87 422.656C356.331 422.196 354.305 409.308 353.753 408.755C353.569 408.571 334.512 411.977 311.405 416.396C288.298 420.723 269.149 424.222 268.965 424.037C268.413 423.485 259.022 372.575 259.391 372.207C259.575 372.115 278.447 368.525 301.186 364.29C324.017 360.055 342.89 356.373 343.35 356.004C343.718 355.636 343.534 352.414 342.89 348.824C342.153 344.129 341.417 342.195 340.404 342.195C339.668 342.195 321.44 345.509 299.897 349.56C278.355 353.611 259.667 357.017 258.47 357.109C256.353 357.385 256.168 356.925 254.511 348.087L252.67 338.789L229.103 333.45C216.122 330.504 205.075 327.742 204.614 327.374C204.154 327.005 205.995 324.243 208.573 321.297C215.293 313.933 221.922 303.622 225.328 295.336C229.563 285.118 231.496 274.162 232.601 253.449C233.706 232.551 234.534 225.738 237.296 216.532C246.87 184.587 280.196 158.258 321.808 149.788C356.699 142.791 399.047 145.829 435.595 158.166C447.563 162.216 466.435 171.791 476.562 178.971C487.609 186.889 508.415 207.602 515.872 218.189C526.919 233.932 535.297 253.172 538.887 271.032C541.097 282.264 541.097 306.384 538.795 317.799C534.56 339.433 527.011 356.189 510.44 380.861C490.647 410.597 480.797 433.428 474.537 465.097C472.88 473.29 472.603 478.998 472.235 516.374L471.775 558.538H479.14H486.505L486.965 516.835C487.333 475.776 487.333 475.039 489.819 463.716C496.079 434.532 506.298 412.438 527.288 382.242C550.671 348.64 560.245 307.212 553.433 269.007C546.989 232.367 523.513 196.463 488.898 169.857C465.239 151.813 434.398 139.661 397.758 134.138C383.12 131.928 350.439 130.916 337.55 132.297ZM198.538 341.459C221.093 346.614 239.597 350.941 239.782 351.033C240.058 351.217 260.219 457.916 260.219 459.297C260.219 459.573 247.331 469.884 231.496 482.22L202.865 504.499L196.513 497.962C186.755 487.651 170.552 464.636 172.117 463.163C172.301 462.887 176.628 462.059 181.599 461.23C186.662 460.401 190.897 459.665 190.989 459.481C191.726 458.928 188.964 445.303 188.135 445.303C187.675 445.303 182.244 446.132 176.168 447.145C169.815 448.249 164.752 448.71 164.292 448.249C163.279 447.237 156.927 429.561 157.479 429.009C157.663 428.825 166.777 427.075 177.733 425.142C188.596 423.301 197.894 421.46 198.17 421.091C198.538 420.723 198.354 417.593 197.71 414.003C196.789 409.124 196.145 407.559 195.04 407.559C194.119 407.559 184.637 409.031 173.774 410.873C158.216 413.542 153.981 414.003 153.428 413.082C152.14 410.965 149.838 392.829 150.943 392.829C151.035 392.829 157.111 391.816 164.292 390.527C171.472 389.238 177.548 388.226 177.733 388.226C178.101 388.226 175.707 374.325 175.339 373.956C175.063 373.68 159.873 376.166 152.14 377.639L149.47 378.099L150.114 368.249C151.035 352.506 154.717 332.069 156.559 332.069C157.111 332.069 175.983 336.303 198.538 341.459Z" fill="#172639"/>
</svg>
