<svg width="690" height="690" viewBox="0 0 690 690" fill="none" xmlns="http://www.w3.org/2000/svg">
<circle cx="345" cy="345" r="345" fill="#E6C390"/>
<path d="M279.659 132.851C265.062 136.02 250.799 147.197 243.959 160.793C237.703 173.305 237.953 168.05 237.953 276.818V374.076L233.282 377.162C226.276 381.833 216.266 391.843 210.428 400.017C202.003 411.861 196.498 424.206 193.162 438.636C191.243 447.311 191.243 469.999 193.162 478.423C197.916 498.943 206.591 514.958 220.771 529.137C235.284 543.651 252.967 553.076 273.403 557.08C281.994 558.832 302.514 558.582 311.355 556.663C341.55 550.157 367.074 530.472 380.92 502.946C388.01 488.933 391.013 475.504 391.013 458.572C390.93 445.476 389.678 437.218 385.841 426.041C379.586 407.857 366.156 389.34 351.142 378.497L344.803 373.909L344.72 339.46V305.095H361.402H378.084V298.422V291.749H361.402H344.72V278.403V265.057H361.402H378.084V258.385V251.712H361.402H344.72V238.366V225.02H361.402H378.084V218.347V211.674H361.402H344.72V195.576C344.72 176.558 343.719 170.886 338.798 160.793C328.204 139.44 303.515 127.763 279.659 132.851ZM300.929 146.196C315.276 149.95 326.369 161.127 330.123 175.557C331.207 179.644 331.374 194.492 331.374 280.989V381.666L335.378 384.002C345.22 389.757 357.065 400.851 363.154 410.193C380.837 437.051 382.839 469.248 368.492 497.775C362.82 509.119 351.559 522.131 340.966 529.638C319.363 544.986 289.168 549.406 264.228 540.898C250.131 536.061 239.205 529.054 228.695 518.044C221.271 510.286 218.352 506.199 213.931 497.274C197.332 464.16 203.421 424.873 229.445 398.182C234.784 392.677 241.457 387.338 247.379 384.002L251.299 381.666V280.989C251.299 194.492 251.466 179.644 252.55 175.557C258.139 154.037 279.993 140.775 300.929 146.196Z" fill="#172639"/>
<path d="M284.664 308.681V405.605L279.576 406.606C270.985 408.274 260.975 413.863 253.802 421.036C232.949 441.889 232.782 475.17 253.385 495.689C263.561 505.782 274.738 510.954 288.334 511.704C312.69 513.039 335.045 497.524 342.468 474.002C345.054 465.745 345.054 451.398 342.468 443.14C338.131 429.628 327.871 417.45 315.526 411.194C311.606 409.192 306.101 407.19 303.265 406.606L298.01 405.605V308.681V211.674H291.337H284.664V308.681ZM300.929 419.785C315.276 423.539 326.37 434.716 330.123 449.146C335.545 469.915 322.283 491.769 300.929 497.358C280.076 502.779 258.139 489.517 252.551 468.164C245.127 439.637 272.403 412.362 300.929 419.785Z" fill="#172639"/>
<path d="M444.814 191.656V211.674H424.795H404.776V218.347V225.02H424.795H444.814V245.039V265.058H451.487H458.16V245.039V225.02H478.178H498.197V218.347V211.674H478.178H458.16V191.656V171.637H451.487H444.814V191.656Z" fill="#172639"/>
</svg>
