<svg width="690" height="690" viewBox="0 0 690 690" fill="none" xmlns="http://www.w3.org/2000/svg">
<circle cx="345" cy="345" r="345" fill="#E6C390"/>
<path d="M109.426 139.017V146.368L216.751 146.552L324.076 146.828L331.059 150.228C339.421 154.363 344.567 159.692 348.61 168.238C351.458 174.302 351.55 174.762 351.826 189.739L352.194 205.177H230.81H109.426V212.528V219.879H171.91H234.393V238.256V256.634H285.85H337.308V238.256V219.879H352.01H366.712V199.388C366.712 175.497 365.977 170.627 361.199 160.519C354.491 146.46 339.972 135.342 324.995 132.677C321.319 132.034 285.023 131.666 214.454 131.666H109.426V139.017ZM322.606 230.905V241.932H285.85H249.095V230.905V219.879H285.85H322.606V230.905Z" fill="#172639"/>
<path d="M249.096 300.74V330.144H256.447H263.798V300.74V271.336H256.447H249.096V300.74Z" fill="#172639"/>
<path d="M278.5 289.714V308.091H285.851H293.202V289.714V271.336H285.851H278.5V289.714Z" fill="#172639"/>
<path d="M307.903 300.74V330.144H315.254H322.605V300.74V271.336H315.254H307.903V300.74Z" fill="#172639"/>
<path d="M376.636 302.027C365.517 304.967 357.615 315.259 357.523 326.561C357.523 337.495 365.701 352.749 376.544 362.029L382.241 366.808L322.79 367.083L263.338 367.359L258.744 369.656C252.863 372.505 247.35 378.11 244.501 383.899C241.653 389.78 241.285 402.368 243.858 407.054C244.685 408.708 245.42 410.179 245.42 410.362C245.42 410.546 241.193 411.006 236.047 411.189C225.021 411.741 219.6 413.762 213.719 419.735C207.746 425.708 205.541 431.221 205.541 440.41C205.449 447.577 205.724 448.68 208.573 454.009C212.065 460.441 214.913 463.198 221.897 466.873C226.491 469.263 226.951 469.354 246.982 469.63L267.381 469.998L265.819 473.765C264.808 476.338 264.257 480.013 264.349 484.975C264.349 491.04 264.808 493.153 266.738 497.013C270.322 503.904 273.17 506.845 279.602 510.336C285.299 513.369 285.667 513.369 298.439 513.736L311.487 514.104L309.925 517.963C308.915 520.444 308.363 524.212 308.363 529.082C308.455 535.606 308.731 537.076 311.487 542.222C314.979 548.654 317.828 551.41 324.811 555.086L329.497 557.567L391.062 557.842C459.151 558.118 464.481 557.842 481.204 552.421C492.415 548.837 497.468 546.54 509.138 539.741C514.468 536.616 522.094 533.033 526.137 531.654C533.213 529.265 534.499 529.173 556.736 528.806L579.892 528.438V521.179V513.92H559.768C529.629 513.92 520.9 515.942 501.42 527.152C489.566 534.044 480.837 537.627 468.708 540.659L459.978 542.865H395.932C332.714 542.865 331.887 542.865 329.406 540.935C324.535 537.351 323.065 534.411 323.065 528.622C323.065 522.833 324.535 519.893 329.406 516.309C331.703 514.563 333.449 514.38 351.642 514.104L371.306 513.828V506.569V499.31L329.589 499.034C289.067 498.759 287.78 498.667 285.299 496.829C280.429 493.245 278.959 490.305 278.959 484.516C278.959 478.727 280.429 475.787 285.299 472.203C287.688 470.365 289.159 470.273 320.401 469.998L352.929 469.722V462.463V455.112L290.996 454.928C229.983 454.652 228.972 454.652 226.491 452.723C221.621 449.139 220.151 446.199 220.151 440.41C220.151 434.621 221.621 431.68 226.491 428.097C228.972 426.167 229.983 426.167 294.672 425.891L360.28 425.708V418.357V411.098L313.05 410.822C266.922 410.546 265.727 410.454 263.246 408.617C258.376 405.033 256.906 402.093 256.906 396.304C256.906 390.515 258.376 387.574 263.246 383.991C265.727 382.061 266.462 382.061 342.178 382.061H418.629L419.18 386.38C423.039 412.752 443.53 435.907 471.005 444.82C480.285 447.853 481.388 447.945 481.939 446.199C482.583 443.718 484.328 433.702 484.053 433.518C483.961 433.426 480.377 432.232 476.059 430.853C460.346 425.891 446.654 414.865 440.13 402.276C435.995 394.374 435.077 391.434 433.331 381.602C431.401 370.575 429.104 368.37 416.975 366.256C400.986 363.5 381.965 350.36 375.441 337.587C370.571 327.847 371.95 319.761 379.117 316.729C386.468 313.696 393.819 315.442 406.132 323.253C420.099 332.074 421.753 332.442 445.276 332.166C467.972 331.982 475.14 332.809 488.739 337.679C511.803 345.765 521.819 354.678 532.662 376.823C541.575 394.833 543.964 396.212 565.925 396.304H579.892V388.953V381.602H566.936C559.585 381.602 553.244 381.142 552.234 380.591C551.223 380.039 548.558 375.813 546.445 371.126C540.931 359.365 536.613 352.933 528.986 345.03C518.419 334.096 502.706 325.642 482.583 320.22C474.221 317.923 472.659 317.831 450.33 317.831L426.807 317.739L421.385 314.891C418.353 313.421 412.748 310.205 408.98 307.816C398.321 301.2 387.111 299.178 376.636 302.027Z" fill="#172639"/>
</svg>
